<?xml version="1.0" standalone="no"?>
<!DOCTYPE svg PUBLIC "-//W3C//DTD SVG 20010904//EN"
 "http://www.w3.org/TR/2001/REC-SVG-20010904/DTD/svg10.dtd">
<svg version="1.0" xmlns="http://www.w3.org/2000/svg"
 width="399.000000pt" height="399.000000pt" viewBox="0 0 399.000000 399.000000"
 preserveAspectRatio="xMidYMid meet">
<metadata>
Created by potrace 1.11, written by Peter Selinger 2001-2013
</metadata>
<g transform="translate(0.000000,399.000000) scale(0.100000,-0.100000)"
fill="#000000" stroke="none">
<path d="M570 3811 c-83 -17 -169 -87 -207 -168 -17 -35 -18 -85 -20 -593 -2
-617 -3 -607 58 -305 32 157 33 161 73 201 36 35 53 44 131 63 258 64 595 120
950 157 203 21 872 30 1116 15 373 -23 779 -83 1207 -178 l23 -6 -3 304 -3
304 -27 51 c-30 57 -90 115 -145 141 -36 17 -126 18 -1578 19 -847 1 -1556 -1
-1575 -5z"/>
<path d="M950 2895 c-173 -7 -324 -16 -335 -20 -40 -16 -73 -45 -89 -79 -9
-19 -39 -168 -66 -332 -138 -818 -130 -755 -105 -804 33 -64 40 -65 460 -65
209 0 392 3 407 8 36 10 97 64 110 96 11 29 22 125 74 631 51 502 51 489 23
524 -28 35 -77 56 -126 54 -21 0 -180 -6 -353 -13z"/>
<path d="M3160 2891 c-41 -3 -81 -10 -87 -14 -18 -11 -16 -85 7 -337 11 -118
20 -239 20 -268 0 -66 13 -92 45 -92 14 0 73 24 132 54 60 30 125 60 146 67
73 25 73 26 48 226 -12 98 -25 215 -28 261 -4 52 -11 89 -20 98 -15 15 -112
17 -263 5z"/>
<path d="M3560 2883 l-24 -21 21 -227 c12 -125 26 -232 32 -238 8 -8 41 -4
117 14 150 34 144 23 129 267 -6 106 -16 197 -21 202 -6 6 -59 13 -120 16
-100 6 -111 5 -134 -13z"/>
<path d="M2877 2246 c-7 -540 -15 -685 -53 -985 -38 -307 -51 -319 -374 -356
-329 -37 -571 -48 -1045 -49 -468 -1 -649 7 -900 40 -60 8 -123 17 -140 20
l-30 5 5 -223 c5 -199 7 -228 26 -268 32 -69 72 -110 139 -141 l60 -29 1556 0
1556 0 64 32 c42 22 75 48 96 76 65 86 63 59 63 980 0 540 -3 832 -10 830 -5
-1 -50 -32 -100 -67 -191 -135 -411 -340 -647 -602 -63 -71 -117 -128 -119
-126 -2 2 0 77 4 168 4 90 5 165 2 167 -3 1 -4 105 -2 230 4 216 -6 428 -29
592 -13 93 -50 174 -88 193 l-28 14 -6 -501z"/>
<path d="M413 1350 c-58 -35 -91 -110 -72 -167 47 -143 259 -85 259 70 0 42
-5 54 -34 83 -28 28 -41 34 -77 34 -26 0 -57 -8 -76 -20z"/>
<path d="M2453 1349 c-107 -68 -65 -249 58 -249 107 0 174 113 125 208 -31 61
-121 81 -183 41z"/>
</g>
</svg>
